{"title":"Draft.Day.2014.AVI.BRRip.720p.DivX.NLsub.{Th3Sp3cialist}","uid":10983180,"size":2598413810,"categoryP":"video","categoryS":"hd___movies","magnet":"?xt=urn:btih:64dc415437ad03eddc2258943cb7df928cfa74af&amp;dn=Draft.Day.2014.AVI.BRRip.720p.DivX.NLsub.%7BTh3Sp3cialist%7D&amp;tr=udp%3A%2F%2Ftracker.openbittorrent.com%3A80&amp;tr=udp%3A%2F%2Fopen.demonii.com%3A1337&amp;tr=udp%3A%2F%2Ftracker.coppersurfer.tk%3A6969&amp;tr=udp%3A%2F%2Fexodus.desync.com%3A6969","seeders":2,"leechers":0,"uploader":"HOLLANDmovies","files":-1,"time":1409885447,"description":"INFO\n\nDraft Day (I) (2014)\n110 min - Drama | Sport\n\nAt the NFL Draft, general manager Sonny Weaver has the opportunity to rebuild his team when he trades for the number one pick. He must decide what he's willing to sacrifice on a life-changing day for a few hundred young men with NFL dreams.\n\nDirector: Ivan Reitman\nWriters: Scott Rothman, Rajiv Joseph\nStars: Kevin Costner, Chadwick Boseman, Jennifer Garner \n\nGENERAL:\n\nComplete name : Draft.Day.2014.AVI.BRRip.720p.DivX.NLsub.{Th3Sp3cialist}.Movie.avi\nFormat : AVI\nFormat/Info : Audio Video Interleave\nFormat profile : OpenDML\nFile size : 2.42 GiB\nDuration : 1h 51mn\nOverall bit rate : 3 121 Kbps\n\nVideo\nID : 0\nFormat : xvid\nCodec ID : xvid\nDuration : 1h 51mn\nBit rate : 2 789 Kbps\nWidth : 1 280 pixels\nHeight : 720 pixels\nDisplay aspect ratio : 16:9\nFrame rate : 24.000 fps\nBits/(Pixel*Frame) : 0.126\nStream size : 2.16 GiB (89%)\n\nAudio\nID : 1\nFormat : MPEG Audio\nFormat version : Version 1\nFormat profile : Layer 3\nMode : Joint stereo\nMode extension : MS Stereo\nCodec ID : 55\nCodec ID/Hint : MP3\nDuration : 1h 51mn\nBit rate mode : Constant\nBit rate : 320 Kbps\nChannel(s) : 2 channels\nSampling rate : 48.0 KHz\nCompression mode : Lossy\nStream size : 254 MiB (10%)\nAlignment : Aligned on interleaves\nInterleave, duration : 24 ms (0.58 video frame)\n &lt;a href=&quot;\nhttp://bayimg.com/EAAMfAAGD&quot; rel=&quot;nofollow&quot; target=&quot;_NEW&quot;&gt;\nhttp://bayimg.com/EAAMfAAGD&lt;/a&gt; &lt;a href=&quot;\nhttp://bayimg.com/EAAmGaagD&quot; rel=&quot;nofollow&quot; target=&quot;_NEW&quot;&gt;\nhttp://bayimg.com/EAAmGaagD&lt;/a&gt; &lt;a href=&quot;\nhttp://bayimg.com/eaamHaAGd&quot; rel=&quot;nofollow&quot; target=&quot;_NEW&quot;&gt;\nhttp://bayimg.com/eaamHaAGd&lt;/a&gt;","torrent":{"xt":"urn:btih:64dc415437ad03eddc2258943cb7df928cfa74af","amp;dn":"Draft.Day.2014.AVI.BRRip.720p.DivX.NLsub.%7BTh3Sp3cialist%7D","amp;tr":["udp%3A%2F%2Ftracker.openbittorrent.com%3A80","udp%3A%2F%2Fopen.demonii.com%3A1337","udp%3A%2F%2Ftracker.coppersurfer.tk%3A6969","udp%3A%2F%2Fexodus.desync.com%3A6969"],"infoHash":"64dc415437ad03eddc2258943cb7df928cfa74af","infoHashBuffer":{"type":"Buffer","data":[100,220,65,84,55,173,3,237,220,34,88,148,60,183,223,146,140,250,116,175]},"announce":[],"urlList":[]}}